<?xml version="1.0"?>
<svg width="122.88000000000001" height="120.79000000000002" xmlns="http://www.w3.org/2000/svg" xmlns:svg="http://www.w3.org/2000/svg" aria-label="Eliminar elementos">
 <g class="layer">
  <title>Layer 1</title>
  <g id="svg_1">
   <path d="m31.4,21.63l60.68,0l0,-13.95c0,-0.08 -0.02,-0.16 -0.04,-0.22c-0.03,-0.07 -0.08,-0.14 -0.13,-0.19l-0.01,-0.01c-0.05,-0.06 -0.12,-0.1 -0.19,-0.13s-0.15,-0.04 -0.23,-0.04l-83.8,0c-0.08,0 -0.16,0.02 -0.22,0.04c-0.07,0.02 -0.14,0.07 -0.21,0.13l-0.02,0.02c-0.04,0.05 -0.08,0.11 -0.11,0.18s-0.04,0.14 -0.04,0.22l0,83.8c0,0.08 0.02,0.16 0.05,0.22l0.01,0.03c0.03,0.06 0.07,0.13 0.12,0.18c0.06,0.06 0.13,0.1 0.2,0.13l0.02,0.01c0.06,0.02 0.13,0.04 0.2,0.04l16.04,0l0,-62.78c0,-1.03 0.21,-2.03 0.58,-2.93c0.39,-0.94 0.96,-1.79 1.67,-2.5l0.04,-0.04c0.7,-0.69 1.54,-1.25 2.46,-1.63c0.91,-0.37 1.9,-0.58 2.93,-0.58l0,0zm67.75,0l16.04,0c1.03,0 2.03,0.21 2.93,0.59c0.94,0.39 1.79,0.96 2.5,1.67l0.04,0.04c0.69,0.7 1.25,1.53 1.63,2.45c0.38,0.91 0.58,1.9 0.58,2.94l0,83.8c0,1.04 -0.21,2.03 -0.58,2.93c-0.39,0.94 -0.96,1.79 -1.67,2.5s-1.55,1.28 -2.5,1.67c-0.91,0.38 -1.9,0.59 -2.93,0.59l-83.79,0c-1.03,0 -2.02,-0.21 -2.93,-0.58c-0.94,-0.39 -1.79,-0.96 -2.5,-1.67s-1.28,-1.56 -1.67,-2.5c-0.38,-0.91 -0.58,-1.9 -0.58,-2.93l0,-13.97l-16.04,0c-1.03,0 -2.03,-0.21 -2.93,-0.59c-0.94,-0.39 -1.79,-0.96 -2.5,-1.67s-1.28,-1.56 -1.67,-2.5c-0.37,-0.9 -0.58,-1.89 -0.58,-2.92l0,-83.8c0,-1.04 0.21,-2.03 0.58,-2.93c0.39,-0.94 0.96,-1.79 1.67,-2.5s1.55,-1.28 2.5,-1.67c0.91,-0.37 1.9,-0.58 2.93,-0.58l83.79,0c1.04,0 2.03,0.21 2.93,0.58c0.94,0.39 1.79,0.96 2.5,1.67c1.4,1.4 2.26,3.31 2.26,5.43l0,13.95l-0.01,0zm16.05,7.07l-83.8,0c-0.08,0 -0.15,0.02 -0.22,0.04c-0.08,0.03 -0.15,0.08 -0.2,0.14l-0.01,0.01c-0.06,0.05 -0.1,0.12 -0.13,0.19s-0.04,0.14 -0.04,0.22l0,83.8c0,0.08 0.02,0.16 0.04,0.22c0.03,0.07 0.08,0.14 0.14,0.2l0.02,0.02c0.05,0.05 0.12,0.09 0.18,0.11c0.07,0.03 0.14,0.04 0.22,0.04l83.79,0c0.08,0 0.16,-0.02 0.22,-0.04l0.02,-0.01c0.07,-0.03 0.13,-0.07 0.18,-0.13s0.1,-0.12 0.13,-0.19l0.01,-0.02c0.02,-0.06 0.03,-0.13 0.03,-0.21l0,-83.8c0,-0.08 -0.02,-0.15 -0.04,-0.22l-0.01,-0.02c-0.03,-0.06 -0.07,-0.12 -0.12,-0.17c-0.06,-0.06 -0.13,-0.11 -0.2,-0.14c-0.06,-0.02 -0.13,-0.04 -0.21,-0.04l0,0z" id="svg_2" transform="translate(0-.02)"/>
  </g>
  <line fill="none" id="svg_3" points="null" stroke="#000" x1="97.61" x2="48.11" y1="95.83" y2="46.34"/>
  <line fill="none" id="svg_4" points="null" stroke="#000" x1="97.61" x2="48.11" y1="46.34" y2="95.83"/>
  <line fill="none" id="svg_5" stroke="#000" stroke-width="8" x1="48.09" x2="97.2" y1="95.57" y2="46.02"/>
  <line fill="none" id="svg_6" stroke="#000" stroke-width="8" x1="48.09" x2="98.09" y1="46.24" y2="95.57"/>
 </g>
</svg>