<svg
    viewBox="0 0 512 512"
    xmlns="http://www.w3.org/2000/svg">
    <path d="m48 48a48 48 0 1 0 48 48 48 48 0 0 0 -48-48zm0 160a48 48 0 1 0 48 48 48 48 0 0 0 -48-48zm0 160a48 48 0 1 0 48 48 48 48 0 0 0 -48-48zm448 16h-320a16 16 0 0 0 -16 16v32a16 16 0 0 0 16 16h320a16 16 0 0 0 16-16v-32a16 16 0 0 0 -16-16zm0-320h-320a16 16 0 0 0 -16 16v32a16 16 0 0 0 16 16h320a16 16 0 0 0 16-16v-32a16 16 0 0 0 -16-16zm0 160h-320a16 16 0 0 0 -16 16v32a16 16 0 0 0 16 16h320a16 16 0 0 0 16-16v-32a16 16 0 0 0 -16-16z" fill="none" stroke="black" stroke-width="20"/>
</svg>